<svg 
class="wave"
 xmlns="http://www.w3.org/2000/svg"
 xmlns:xlink="http://www.w3.org/1999/xlink"
 width="2103px" height="8035px" viewport="50 0 50 50">
<path fill-rule="evenodd"  fill="rgb(184, 187, 191)"
 d="M0.376,0.237 C909.640,18.115 1490.596,34.351 2073.304,40.267 C2024.309,214.871 2032.261,471.753 2049.184,778.162 C2066.942,1084.849 2093.865,1441.99 2100.164,1820.662 C2107.496,2200.520 2093.458,2603.610 2055.611,3010.884 C2018.589,3418.451 1959.211,3830.280 1896.617,4234.369 C1832.965,4637.602 1765.512,5031.467 1711.759,5405.610 C1657.486,5779.718 1616.913,6134.105 1594.995,6457.588 C1573.839,6782.941 1570.580,7077.362 1590.346,7340.379 C1610.526,7603.404 1653.732,7835.25 1735.81,8034.977 C1315.251,8034.999 894.657,8034.999 473.950,8034.998 C419.564,7757.811 373.891,7468.223 331.927,7168.923 C290.568,6869.642 252.918,6560.648 228.507,6245.100 C203.244,5929.82 196.198,5608.985 213.398,5285.858 C230.16,4962.712 270.880,4636.537 328.14,4307.934 C438.730,3649.883 602.799,2975.371 567.537,2248.218 C551.323,1885.180 482.586,1508.989 369.352,1127.481 C259.221,746.870 105.636,361.199 0.376,0.237 Z"/>
</svg>