<svg 
 xmlns="http://www.w3.org/2000/svg"
 xmlns:xlink="http://www.w3.org/1999/xlink"
 width="1698px" height="425px"
 class="svg__yellow-wave">
<defs>
<filter filterUnits="userSpaceOnUse" id="Filter_0" x="0px" y="0px" width="1698px" height="425px"  >
    <feOffset in="SourceAlpha" dx="0" dy="0" />
    <feGaussianBlur result="blurOut" stdDeviation="4" />
    <feFlood flood-color="rgb(0, 0, 0)" result="floodOut" />
    <feComposite operator="atop" in="floodOut" in2="blurOut" />
    <feComponentTransfer><feFuncA type="linear" slope="0.41"/></feComponentTransfer>
    <feMerge>
    <feMergeNode/>
    <feMergeNode in="SourceGraphic"/>
  </feMerge>
</filter>

</defs>
<g filter="url(#Filter_0)">
<path fill-rule="evenodd"  fill="rgb(250, 240, 214)"
 d="M47.605,51.191 C112.52,28.230 194.62,16.416 283.30,15.617 C371.778,14.795 466.853,24.341 552.17,43.345 C637.499,62.233 712.613,90.338 769.79,123.781 C826.313,157.107 864.824,194.951 895.453,231.88 C970.847,310.436 1066.18,331.610 1217.317,350.365 C1293.717,358.713 1381.358,364.913 1480.352,370.969 C1574.495,377.587 1680.209,384.338 1681.989,408.997 C1655.471,408.102 1581.146,406.433 1492.397,404.690 C1402.950,402.938 1299.46,401.160 1197.273,399.825 C991.135,397.63 798.831,396.298 647.773,396.867 C495.266,397.417 377.403,399.46 283.37,400.925 C188.312,402.844 117.65,404.969 49.390,407.472 C28.835,408.261 13.931,400.182 15.265,389.550 C28.920,276.731 26.391,176.346 15.416,80.612 C14.393,71.861 27.737,58.215 47.605,51.191 Z"/>
</g>
</svg>