<svg 
 class="logo"
 xmlns="http://www.w3.org/2000/svg"
 xmlns:xlink="http://www.w3.org/1999/xlink"
 viewBox="0 0 500 500"
 width="120" height="120">
<path fill-rule="evenodd"  fill-opacity="0.502" opacity="0.502" fill="rgb(255, 255, 255)"
 d="M288.342,499.999 L288.342,0.7 L0.531,0.7 L0.531,499.999 L288.342,499.999 ZM36.245,35.721 L252.629,35.721 L252.629,464.286 L36.245,464.286 L36.245,35.721 Z"/>
<path fill-rule="evenodd"  fill="rgb(255, 255, 255)"
 d="M255.236,96.696 C255.236,90.106 254.151,85.598 251.984,83.167 C249.813,80.740 245.781,79.525 239.886,79.525 L158.975,79.525 C147.7,79.525 138.507,81.781 133.478,86.289 C128.446,90.801 125.934,98.171 125.934,108.403 C125.934,118.464 128.446,125.794 133.478,130.387 C138.507,134.985 147.7,137.282 158.975,137.282 L193.577,137.282 L193.577,203.104 C183.861,195.648 173.154,189.880 161.446,185.803 C149.739,181.729 137.726,179.689 125.413,179.689 C89.681,179.689 60.242,191.571 37.87,215.331 C13.932,239.96 2.355,269.15 2.355,305.89 C2.355,339.780 13.802,368.699 36.697,391.854 C59.591,415.9 88.35,426.586 122.31,426.586 C138.682,426.586 153.682,423.505 167.40,417.350 C180.394,411.196 191.321,402.305 199.821,390.683 L199.821,408.895 C199.821,412.366 201.162,415.98 203.853,417.90 C206.540,419.86 210.398,420.82 215.431,420.82 L255.236,420.82 C267.29,420.82 275.399,417.830 280.342,413.318 C285.285,408.809 287.757,401.439 287.757,391.203 C287.757,382.12 285.415,375.33 280.732,370.260 C276.49,365.492 269.25,363.106 259.659,363.106 L255.236,363.106 L255.236,96.696 ZM175.625,254.356 C186.898,267.194 192.536,283.324 192.536,302.747 C192.536,322.695 186.942,339.85 175.755,351.918 C164.568,364.756 150.389,371.171 133.218,371.171 C116.47,371.171 101.909,364.797 90.811,352.49 C79.709,339.300 74.161,322.869 74.161,302.747 C74.161,283.149 79.754,266.974 90.941,254.226 C102.128,241.478 116.218,235.104 133.218,235.104 C150.214,235.104 164.349,241.523 175.625,254.356 Z"/>
<path fill-rule="evenodd"  fill="rgb(255, 255, 255)"
 d="M410.735,318.392 L313.433,318.392 L313.433,420.637 L410.735,420.637 L410.735,318.392 Z"/>
</svg>